# xmcd CD database file
#
# Track frame offsets:
#	212
#	21075
#	37622
#	58387
#	74540
#	99150
#	114682
#	130942
#	147630
#	169050
#
# Disc length: 2433 seconds
#
# Revision: 1
# Processed by: cddbd v1.4PL0 Copyright (c) Steve Scherf et al.
# Submitted via: Feurio! 1.64 - http://www.feurio.com
#
DISCID=8d097f0a
DTITLE=Colin James - Colin James
DYEAR=1988
DGENRE=Bluesrock
TTITLE0=Five Long Years
TTITLE1=Voodoo Thing
TTITLE2=Down In The Bottom
TTITLE3=Chicks'n Cars
TTITLE4=Why'd You Lie
TTITLE5=Hidden Charms
TTITLE6=Bad Girl
TTITLE7=Lone Wolf
TTITLE8=Dreams Of Satin
TTITLE9=Three Sheets To The Wind
EXTD=
EXTT0=
EXTT1=
EXTT2=
EXTT3=
EXTT4=
EXTT5=
EXTT6=
EXTT7=
EXTT8=
EXTT9=
PLAYORDER=
